HIERARCHY
ROOT Hips
{
	OFFSET 0.000000 83.208069 2.550922
	CHANNELS 6 Xposition Yposition Zposition Xrotation Yrotation Zrotation
	JOINT Pelvis
	{
		OFFSET 0.000000 0.000000 0.000000
		CHANNELS 3 Xrotation Yrotation Zrotation
		JOINT LeftUpLeg
		{
			OFFSET 8.479694 -4.795517 -0.379053
			CHANNELS 3 Xrotation Yrotation Zrotation
			JOINT LeftLeg
			{
				OFFSET 0.485052 -32.551468 0.112863
				CHANNELS 3 Xrotation Yrotation Zrotation
				JOINT LeftFoot
				{
					OFFSET 0.438033 -32.635670 -3.012641
					CHANNELS 3 Xrotation Yrotation Zrotation
					JOINT LeftToeBase
					{
						OFFSET 0.970169 -13.225353 11.864223
						CHANNELS 3 Xrotation Yrotation Zrotation
						End Site
						{
							OFFSET 0.000000 12.319231 0.000000
						}
					}
					JOINT LFootTongue
					{
						OFFSET 1.142399 -1.059789 6.665162
						CHANNELS 3 Xrotation Yrotation Zrotation
						End Site
						{
							OFFSET 0.000000 12.319230 0.000000
						}
					}
				}
				JOINT LeftPantLeg
				{
					OFFSET 1.152549 -16.519323 -2.284731
					CHANNELS 3 Xrotation Yrotation Zrotation
					End Site
					{
						OFFSET 0.000000 24.746851 0.000000
					}
				}
			}
		}
		JOINT RightUpLeg
		{
			OFFSET -8.479694 -4.795517 -0.379053
			CHANNELS 3 Xrotation Yrotation Zrotation
			JOINT RightLeg
			{
				OFFSET -0.484100 -32.551483 0.112903
				CHANNELS 3 Xrotation Yrotation Zrotation
				JOINT RightFoot
				{
					OFFSET -0.438985 -32.635651 -3.012681
					CHANNELS 3 Xrotation Yrotation Zrotation
					JOINT RightToeBase
					{
						OFFSET -0.970169 -13.225354 11.864223
						CHANNELS 3 Xrotation Yrotation Zrotation
						End Site
						{
							OFFSET 0.000000 12.319217 0.000000
						}
					}
					JOINT RFootTongue
					{
						OFFSET -1.142220 -1.059793 6.665161
						CHANNELS 3 Xrotation Yrotation Zrotation
						End Site
						{
							OFFSET 0.000000 12.319217 0.000000
						}
					}
				}
				JOINT RightPantLeg
				{
					OFFSET -1.153501 -16.519308 -2.284772
					CHANNELS 3 Xrotation Yrotation Zrotation
					End Site
					{
						OFFSET 0.000000 24.746878 0.000000
					}
				}
			}
		}
	}
	JOINT Spine
	{
		OFFSET 0.000000 7.722015 1.166203
		CHANNELS 3 Xrotation Yrotation Zrotation
		JOINT Spine1
		{
			OFFSET 0.000000 12.024086 0.248766
			CHANNELS 3 Xrotation Yrotation Zrotation
			JOINT Spine2
			{
				OFFSET -0.000000 11.503036 -0.491240
				CHANNELS 3 Xrotation Yrotation Zrotation
				JOINT Neck
				{
					OFFSET 0.000000 18.430687 -3.123054
					CHANNELS 3 Xrotation Yrotation Zrotation
					JOINT Head
					{
						OFFSET -0.000000 9.051071 1.034021
						CHANNELS 3 Xrotation Yrotation Zrotation
						JOINT HairB
						{
							OFFSET 0.208397 24.786072 24.822304
							CHANNELS 3 Xrotation Yrotation Zrotation
							End Site
							{
								OFFSET 0.000000 32.263794 0.000000
							}
						}
						JOINT HairA
						{
							OFFSET -7.081073 24.428299 23.196634
							CHANNELS 3 Xrotation Yrotation Zrotation
							End Site
							{
								OFFSET 0.000000 32.263779 0.000000
							}
						}
						JOINT Hat
						{
							OFFSET 16.728800 15.048309 -15.439650
							CHANNELS 3 Xrotation Yrotation Zrotation
							End Site
							{
								OFFSET 0.000000 32.263794 0.000000
							}
						}
					}
				}
				JOINT LeftShoulder
				{
					OFFSET 6.197824 13.665230 -4.064723
					CHANNELS 3 Xrotation Yrotation Zrotation
					JOINT LeftArm
					{
						OFFSET 7.778132 -0.187073 -1.709282
						CHANNELS 3 Xrotation Yrotation Zrotation
						JOINT LeftForeArm
						{
							OFFSET 21.954697 0.000000 -2.041093
							CHANNELS 3 Xrotation Yrotation Zrotation
							JOINT LeftHand
							{
								OFFSET 22.992908 0.000000 -0.870901
								CHANNELS 3 Xrotation Yrotation Zrotation
								JOINT LeftHandThumb1
								{
									OFFSET 3.593975 -1.460358 3.365570
									CHANNELS 3 Xrotation Yrotation Zrotation
									JOINT LeftHandThumb2
									{
										OFFSET 3.016712 -1.561966 2.119022
										CHANNELS 3 Xrotation Yrotation Zrotation
										JOINT LeftHandThumb3
										{
											OFFSET 3.029564 -2.099800 1.415844
											CHANNELS 3 Xrotation Yrotation Zrotation
											End Site
											{
												OFFSET 0.000000 3.948677 0.000000
											}
										}
									}
								}
								JOINT LeftHandIndex1
								{
									OFFSET 11.372505 0.065018 3.699154
									CHANNELS 3 Xrotation Yrotation Zrotation
									JOINT LeftHandIndex2
									{
										OFFSET 3.229195 -0.574921 -0.143498
										CHANNELS 3 Xrotation Yrotation Zrotation
										JOINT LeftHandIndex3
										{
											OFFSET 3.111160 -1.135635 -0.280794
											CHANNELS 3 Xrotation Yrotation Zrotation
											End Site
											{
												OFFSET 0.000000 3.323822 0.000000
											}
										}
									}
								}
								JOINT LeftHandMiddle1
								{
									OFFSET 11.327377 0.426697 -0.098180
									CHANNELS 3 Xrotation Yrotation Zrotation
									JOINT LeftHandMiddle2
									{
										OFFSET 3.290932 -0.875465 -0.186927
										CHANNELS 3 Xrotation Yrotation Zrotation
										JOINT LeftHandMiddle3
										{
											OFFSET 3.094551 -1.150223 -0.267588
											CHANNELS 3 Xrotation Yrotation Zrotation
											End Site
											{
												OFFSET 0.000000 3.312233 0.000000
											}
										}
									}
								}
								JOINT LeftHandRing1
								{
									OFFSET 11.497078 -0.008904 -3.070051
									CHANNELS 3 Xrotation Yrotation Zrotation
									JOINT LeftHandRing2
									{
										OFFSET 2.881340 -0.992859 -0.186928
										CHANNELS 3 Xrotation Yrotation Zrotation
										JOINT LeftHandRing3
										{
											OFFSET 3.022743 -1.281013 -0.290960
											CHANNELS 3 Xrotation Yrotation Zrotation
											End Site
											{
												OFFSET 0.000000 3.295853 0.000000
											}
										}
									}
								}
								JOINT LeftHandPinky1
								{
									OFFSET 10.529488 -1.373093 -5.625615
									CHANNELS 3 Xrotation Yrotation Zrotation
									JOINT LeftHandPinky2
									{
										OFFSET 2.679024 -0.950073 -0.330554
										CHANNELS 3 Xrotation Yrotation Zrotation
										JOINT LeftHandPinky3
										{
											OFFSET 2.724571 -0.843613 -0.252685
											CHANNELS 3 Xrotation Yrotation Zrotation
											End Site
											{
												OFFSET 0.000000 2.863358 0.000000
											}
										}
									}
								}
							}
							JOINT LSleeve
							{
								OFFSET 6.633202 -0.344879 -1.263650
								CHANNELS 3 Xrotation Yrotation Zrotation
								End Site
								{
									OFFSET 0.000000 14.885345 0.000000
								}
							}
						}
					}
				}
				JOINT RightShoulder
				{
					OFFSET -6.197824 13.665230 -4.064723
					CHANNELS 3 Xrotation Yrotation Zrotation
					JOINT RightArm
					{
						OFFSET -7.778132 -0.187073 -1.709282
						CHANNELS 3 Xrotation Yrotation Zrotation
						JOINT RightForeArm
						{
							OFFSET -21.954697 0.000000 -2.041093
							CHANNELS 3 Xrotation Yrotation Zrotation
							JOINT RightHand
							{
								OFFSET -22.992908 0.000000 -0.870901
								CHANNELS 3 Xrotation Yrotation Zrotation
								JOINT RightHandThumb1
								{
									OFFSET -3.593975 -1.460358 3.365570
									CHANNELS 3 Xrotation Yrotation Zrotation
									JOINT RightHandThumb2
									{
										OFFSET -3.016712 -1.561966 2.119022
										CHANNELS 3 Xrotation Yrotation Zrotation
										JOINT RightHandThumb3
										{
											OFFSET -3.029564 -2.099800 1.415844
											CHANNELS 3 Xrotation Yrotation Zrotation
											End Site
											{
												OFFSET 0.000000 3.948677 0.000000
											}
										}
									}
								}
								JOINT RightHandIndex1
								{
									OFFSET -11.372513 0.065018 3.699154
									CHANNELS 3 Xrotation Yrotation Zrotation
									JOINT RightHandIndex2
									{
										OFFSET -3.229187 -0.574921 -0.143498
										CHANNELS 3 Xrotation Yrotation Zrotation
										JOINT RightHandIndex3
										{
											OFFSET -3.111160 -1.135635 -0.280794
											CHANNELS 3 Xrotation Yrotation Zrotation
											End Site
											{
												OFFSET 0.000000 3.323822 0.000000
											}
										}
									}
								}
								JOINT RightHandMiddle1
								{
									OFFSET -11.327377 0.426697 -0.098180
									CHANNELS 3 Xrotation Yrotation Zrotation
									JOINT RightHandMiddle2
									{
										OFFSET -3.290932 -0.875465 -0.186927
										CHANNELS 3 Xrotation Yrotation Zrotation
										JOINT RightHandMiddle3
										{
											OFFSET -3.094551 -1.150223 -0.267588
											CHANNELS 3 Xrotation Yrotation Zrotation
											End Site
											{
												OFFSET 0.000000 3.312233 0.000000
											}
										}
									}
								}
								JOINT RightHandRing1
								{
									OFFSET -11.497078 -0.008904 -3.070051
									CHANNELS 3 Xrotation Yrotation Zrotation
									JOINT RightHandRing2
									{
										OFFSET -2.881340 -0.992859 -0.186928
										CHANNELS 3 Xrotation Yrotation Zrotation
										JOINT RightHandRing3
										{
											OFFSET -3.022743 -1.281013 -0.290960
											CHANNELS 3 Xrotation Yrotation Zrotation
											End Site
											{
												OFFSET 0.000000 3.295853 0.000000
											}
										}
									}
								}
								JOINT RightHandPinky1
								{
									OFFSET -10.529488 -1.373093 -5.625615
									CHANNELS 3 Xrotation Yrotation Zrotation
									JOINT RightHandPinky2
									{
										OFFSET -2.679024 -0.950073 -0.330554
										CHANNELS 3 Xrotation Yrotation Zrotation
										JOINT RightHandPinky3
										{
											OFFSET -2.724571 -0.843613 -0.252685
											CHANNELS 3 Xrotation Yrotation Zrotation
											End Site
											{
												OFFSET 0.000000 2.863358 0.000000
											}
										}
									}
								}
							}
							JOINT RSleeve
							{
								OFFSET -6.633202 -0.344879 -1.263650
								CHANNELS 3 Xrotation Yrotation Zrotation
								End Site
								{
									OFFSET 0.000000 14.885345 0.000000
								}
							}
						}
					}
				}
				JOINT Backpack
				{
					OFFSET -0.000000 -2.471489 36.677479
					CHANNELS 3 Xrotation Yrotation Zrotation
					End Site
					{
						OFFSET 0.000000 20.427322 0.000000
					}
				}
				JOINT Hood
				{
					OFFSET -0.000000 18.754143 -10.430963
					CHANNELS 3 Xrotation Yrotation Zrotation
					JOINT Hood1
					{
						OFFSET -0.000000 -5.011017 -7.685929
						CHANNELS 3 Xrotation Yrotation Zrotation
						End Site
						{
							OFFSET 0.000000 9.175171 0.000000
						}
					}
				}
				JOINT LHoodieString
				{
					OFFSET 5.250455 16.397728 3.089918
					CHANNELS 3 Xrotation Yrotation Zrotation
					JOINT LHoodieString1
					{
						OFFSET 0.257711 -6.364296 3.694587
						CHANNELS 3 Xrotation Yrotation Zrotation
						JOINT LHoodieString2
						{
							OFFSET 0.000000 -9.643806 2.679132
							CHANNELS 3 Xrotation Yrotation Zrotation
							End Site
							{
								OFFSET 0.000000 10.009033 0.000000
							}
						}
					}
				}
				JOINT RHoodieString
				{
					OFFSET -5.250455 16.397728 3.089918
					CHANNELS 3 Xrotation Yrotation Zrotation
					JOINT RHoodieString1
					{
						OFFSET -0.257711 -6.364296 3.694587
						CHANNELS 3 Xrotation Yrotation Zrotation
						JOINT RHoodieString2
						{
							OFFSET 0.000000 -9.643806 2.679132
							CHANNELS 3 Xrotation Yrotation Zrotation
							End Site
							{
								OFFSET 0.000000 10.009033 0.000000
							}
						}
					}
				}
			}
			JOINT LBackpack_Strap
			{
				OFFSET 15.223173 -7.719788 -6.610897
				CHANNELS 3 Xrotation Yrotation Zrotation
				End Site
				{
					OFFSET 0.000000 16.040596 0.000000
				}
			}
			JOINT RBackpack_Strap
			{
				OFFSET -15.223000 -7.719788 -6.610897
				CHANNELS 3 Xrotation Yrotation Zrotation
				End Site
				{
					OFFSET 0.000000 16.040596 0.000000
				}
			}
		}
	}
	JOINT BoyFacialAnim_Joint
	{
		OFFSET 1.000000 -82.208069 -1.550922
		CHANNELS 3 Xrotation Yrotation Zrotation
		End Site
		{
			OFFSET 0.000000 30.012787 0.000000
		}
	}
}
MOTION
Frames: 4
Frame Time: 0.016667
-2.274771 80.315842 1.541378 0.293913 -22.223885 -2.787235 0.000000 -0.000000 -0.000000 -13.077067 -0.076612 -4.643759 34.658204 10.997742 6.661415 -15.136802 6.669466 -2.698123 -0.000001 -0.000000 0.000000 -0.000001 -0.000000 0.000000 -0.000000 -0.000001 0.000000 -8.855347 -16.126517 7.266474 26.161283 9.881171 -1.739325 -15.293485 2.251257 -11.892868 -0.000000 0.000000 0.000000 -0.000000 0.000000 -0.000000 0.000003 0.000000 0.000001 -5.327327 25.424090 11.034415 3.997429 3.936052 -7.691240 4.476292 3.961408 -7.425024 3.040560 -3.094698 4.070853 6.875136 -11.753990 7.892891 0.000000 -0.000000 0.000000 0.000000 -0.000000 0.000000 0.000000 -0.000000 0.000000 0.325191 0.835602 7.865653 16.577586 -1.758940 -26.203807 -0.000015 -101.879942 0.000015 30.186947 -41.821702 29.587495 -2.499200 4.404748 8.612776 -2.751253 9.053912 6.889703 0.000001 -0.000002 -0.000000 -1.924992 -2.494691 -34.450494 -3.981646 -1.815358 -36.726603 -0.000000 0.000000 -0.000001 -2.211854 -3.104882 -29.656429 -4.005944 -0.665581 -41.132885 0.000002 -0.000000 0.000001 -2.326806 -3.509114 -25.574602 -4.454738 -0.258215 -42.616084 0.000002 0.000000 0.000001 -1.222687 -3.250071 -25.199713 -5.306413 -1.012522 -48.755202 -0.000001 -0.000001 0.000001 0.000003 0.000000 0.000000 0.758278 1.963742 2.804309 -28.015822 14.150331 68.970506 -0.000042 108.982724 0.000045 42.880491 -6.915538 46.383562 -2.743950 -3.065914 -8.658440 -1.235756 -17.788116 -6.785782 -0.000001 0.000001 0.000000 -0.063678 2.253699 -2.006481 -0.720143 2.571961 0.316169 0.000002 -0.000002 -0.000002 0.067754 2.915125 -6.804413 -0.933831 1.620027 4.758560 0.000000 -0.000002 0.000002 0.217006 3.307958 -10.917035 -1.220294 1.572917 6.292048 0.000001 -0.000002 -0.000000 0.385831 6.488210 -11.389699 -0.694801 -1.547233 12.468054 -0.000002 -0.000003 -0.000000 -0.000002 -0.000001 0.000001 -0.000000 0.000000 0.000001 -0.000000 0.000000 0.000001 -0.000000 0.000000 0.000001 -0.000000 0.000000 0.000001 -0.000000 0.000000 0.000001 -0.000000 0.000000 0.000001 -0.000000 0.000000 0.000001 -0.000000 0.000000 0.000001 -0.000000 0.000000 0.000001 -0.000000 -0.000000 -0.000000 -0.000000 -0.000000 -0.000000 0.000000 -0.000000 -0.000000 
-2.350633 80.264877 1.436457 0.976654 -23.647870 -1.362282 -0.000000 -0.000001 0.000000 -11.861183 0.468564 -4.891315 32.185190 10.777197 4.474348 -16.925424 7.299439 -0.563125 -0.000001 -0.000001 0.000000 -0.000000 -0.000001 0.000000 -0.000002 -0.000000 -0.000000 -10.875158 -16.556903 6.920342 28.573328 9.092856 -3.275339 -16.245152 4.208270 -13.919239 -0.000000 -0.000001 -0.000000 -0.000000 -0.000001 -0.000001 0.000002 0.000001 0.000000 -5.553678 25.949147 10.926017 4.220426 3.950582 -8.490484 4.749213 3.992887 -8.204205 2.987697 -2.928619 4.057882 6.667903 -11.048125 8.304520 0.000001 0.000000 0.000000 0.000001 0.000000 0.000000 0.000001 0.000000 0.000000 0.327252 0.857187 7.499487 13.028558 1.551695 -25.805908 -0.000009 -100.227097 -0.000007 30.076386 -42.014065 29.523100 -2.499407 4.583762 8.535796 -2.751256 9.053913 6.889702 0.000002 0.000002 -0.000001 -1.936200 -2.492463 -34.668920 -3.999341 -1.804501 -36.948386 0.000001 0.000000 -0.000001 -2.225395 -3.101556 -29.874954 -4.022131 -0.653923 -41.354381 0.000002 -0.000000 0.000002 -2.341884 -3.505337 -25.793209 -4.471207 -0.244158 -42.837300 -0.000001 -0.000001 -0.000000 -1.236794 -3.250505 -25.418301 -5.323058 -0.998478 -48.976599 0.000003 0.000001 -0.000003 0.000000 0.000000 -0.000001 0.652812 1.559986 2.089261 -29.487289 18.724595 70.584329 0.000004 108.909470 -0.000005 42.834155 -5.491214 48.058177 -2.686475 -1.588425 -8.620839 -1.437232 -15.737581 -6.684370 -0.000000 0.000001 -0.000000 -0.063676 2.253696 -2.006481 -0.720144 2.571956 0.316168 -0.000003 0.000004 -0.000000 0.067755 2.915119 -6.804411 -0.933833 1.620024 4.758560 0.000000 0.000000 -0.000001 0.217007 3.307958 -10.917034 -1.220293 1.572917 6.292048 -0.000000 0.000005 0.000001 0.385834 6.488212 -11.389697 -0.694801 -1.547236 12.468056 -0.000001 0.000001 -0.000001 -0.000000 -0.000001 0.000003 -0.000001 -0.000000 -0.000000 -0.000001 -0.000000 -0.000000 -0.000001 -0.000000 -0.000000 -0.000001 -0.000000 -0.000000 -0.000001 -0.000000 0.000000 -0.000001 -0.000000 -0.000000 -0.000001 -0.000000 -0.000000 -0.000001 -0.000000 -0.000000 -0.000001 -0.000000 0.000000 -0.000000 0.000000 0.000000 -0.000000 0.000000 0.000000 -0.000000 -0.000001 0.000000 
-2.363044 80.253761 1.299241 1.693041 -24.610749 0.020834 -0.000000 0.000000 -0.000000 -10.776026 0.923135 -5.246498 29.549017 10.600508 2.669982 -18.047134 7.416441 1.313842 -0.000000 0.000000 -0.000000 -0.000000 0.000000 -0.000000 0.000001 -0.000000 -0.000000 -15.277880 -16.242244 5.366876 33.419883 8.956070 -4.551578 -14.039511 4.817779 -11.472943 -0.000000 -0.000002 -0.000000 -0.000000 -0.000002 -0.000000 -0.000000 -0.000000 0.000001 -5.812141 26.028485 10.946562 4.475672 3.888727 -9.274569 5.047279 3.947507 -8.970704 2.899902 -2.740073 4.005313 6.479660 -10.247169 8.642152 0.000000 0.000000 0.000000 0.000000 0.000000 0.000000 0.000000 0.000000 0.000000 0.367763 0.793787 6.904555 8.829969 4.508989 -25.546714 0.000106 -98.489395 0.000095 30.081362 -42.215839 29.497514 -2.499185 4.736332 8.469781 -2.751252 9.053914 6.889701 0.000002 0.000000 -0.000000 -1.938053 -2.492070 -34.705209 -4.002142 -1.802778 -36.983535 -0.000000 0.000000 -0.000000 -2.227638 -3.100981 -29.911256 -4.024686 -0.652067 -41.389457 0.000000 0.000001 0.000002 -2.344372 -3.504679 -25.829527 -4.473804 -0.241913 -42.872339 -0.000001 -0.000002 0.000001 -1.239132 -3.250574 -25.454595 -5.325707 -0.996237 -49.011686 0.000002 0.000001 -0.000000 -0.000001 -0.000000 0.000001 0.538050 0.995599 1.420872 -30.732416 23.446600 71.610463 0.000089 108.808445 -0.000103 42.479784 -4.329095 49.004285 -2.635944 -0.267637 -8.588498 -1.611249 -13.981565 -6.592373 -0.000000 -0.000002 -0.000001 -0.063674 2.253697 -2.006480 -0.720143 2.571960 0.316168 0.000001 0.000001 -0.000001 0.067759 2.915121 -6.804412 -0.933831 1.620021 4.758559 0.000000 -0.000001 0.000001 0.217009 3.307957 -10.917036 -1.220293 1.572919 6.292050 0.000001 0.000001 -0.000000 0.385836 6.488212 -11.389698 -0.694800 -1.547234 12.468053 -0.000000 0.000003 0.000003 0.000001 -0.000001 0.000003 -0.000000 0.000000 -0.000001 -0.000000 0.000000 -0.000001 -0.000000 0.000000 -0.000001 -0.000000 0.000000 -0.000001 -0.000000 0.000000 -0.000000 -0.000000 0.000000 -0.000001 -0.000000 0.000000 -0.000001 -0.000000 0.000000 -0.000001 -0.000000 0.000000 -0.000001 0.000000 -0.000000 0.000000 0.000000 -0.000000 0.000000 -0.000000 0.000000 -0.000000 
-2.312084 80.240585 1.137460 2.316181 -25.091972 1.343691 -0.000000 -0.000000 -0.000000 -9.862977 1.140978 -5.783506 27.073883 10.467108 1.298307 -18.578512 7.275465 2.688825 -0.000000 -0.000001 -0.000000 -0.000000 -0.000001 -0.000000 0.000001 0.000000 -0.000000 -19.917457 -15.203706 3.579780 37.994744 8.857471 -5.326245 -10.165635 5.133927 -8.212062 0.000001 0.000001 0.000000 0.000001 0.000001 -0.000000 0.000000 0.000001 0.000000 -5.885518 25.729830 11.018852 4.668288 3.770794 -10.047020 5.276398 3.841543 -9.734970 2.826789 -2.552326 3.939364 6.357953 -9.443908 8.899214 -0.000000 0.000000 -0.000000 -0.000000 0.000000 -0.000000 -0.000000 0.000000 -0.000000 0.452092 0.628425 6.086878 4.109823 7.034259 -25.431784 0.000129 -96.744657 0.000132 30.207867 -42.417479 29.543170 -2.498501 4.847594 8.418200 -2.751254 9.053913 6.889701 0.000001 0.000001 0.000002 -1.927671 -2.494145 -34.502820 -3.985758 -1.812841 -36.778028 -0.000000 0.000003 0.000001 -2.215098 -3.104079 -29.708779 -4.009721 -0.662887 -41.184220 -0.000000 0.000002 -0.000004 -2.330411 -3.508191 -25.626969 -4.458570 -0.254963 -42.667386 -0.000001 0.000000 -0.000002 -1.226069 -3.250160 -25.252079 -5.310299 -1.009296 -48.806500 0.000003 -0.000000 0.000002 -0.000003 0.000000 0.000000 0.421122 0.305506 0.829007 -31.364454 28.144249 71.820716 0.000056 108.841872 -0.000040 42.045282 -3.642896 49.084157 -2.589213 0.971336 -8.559213 -1.763665 -12.457020 -6.508595 0.000001 0.000000 -0.000000 -0.063676 2.253699 -2.006480 -0.720142 2.571962 0.316167 -0.000000 0.000000 0.000001 0.067756 2.915121 -6.804412 -0.933834 1.620025 4.758560 -0.000000 -0.000001 -0.000002 0.217007 3.307956 -10.917036 -1.220295 1.572919 6.292048 -0.000000 -0.000001 -0.000000 0.385835 6.488215 -11.389698 -0.694800 -1.547233 12.468054 0.000001 0.000001 -0.000000 -0.000001 -0.000001 0.000001 0.000000 -0.000000 -0.000000 0.000000 -0.000000 -0.000000 0.000000 -0.000000 -0.000000 0.000000 -0.000000 -0.000000 0.000000 -0.000000 -0.000000 0.000000 -0.000000 -0.000001 0.000000 -0.000000 -0.000000 0.000000 -0.000000 -0.000001 0.000000 -0.000000 -0.000000 0.000000 0.000000 -0.000000 0.000000 0.000000 -0.000000 -0.000000 -0.000000 -0.000000 
